<?xml version="1.0" standalone="no"?>
<!DOCTYPE svg PUBLIC "-//W3C//DTD SVG 20010904//EN"
 "http://www.w3.org/TR/2001/REC-SVG-20010904/DTD/svg10.dtd">
<svg version="1.0" xmlns="http://www.w3.org/2000/svg"
 width="1117.000000pt" height="1117.000000pt" viewBox="0 0 1117.000000 1117.000000"
 preserveAspectRatio="xMidYMid meet">
<metadata>
Created by potrace 1.11, written by Peter Selinger 2001-2013
</metadata>
<g transform="translate(0.000000,1117.000000) scale(0.100000,-0.100000)"
fill="#000000" stroke="none">
<path d="M5338 11165 c-2 -1 -55 -6 -118 -10 -167 -10 -201 -13 -235 -19 -16
-3 -57 -8 -90 -11 -51 -6 -110 -15 -330 -51 -78 -13 -83 -14 -235 -48 -291
-67 -709 -201 -915 -295 -22 -11 -69 -31 -105 -47 -288 -125 -666 -339 -940
-533 -90 -63 -315 -234 -330 -251 -3 -3 -52 -45 -110 -94 -58 -50 -119 -104
-136 -120 -17 -17 -62 -61 -100 -97 -72 -69 -228 -230 -279 -289 -506 -580
-864 -1191 -1107 -1889 -57 -164 -139 -452 -163 -571 -2 -8 -8 -33 -13 -55 -6
-22 -13 -53 -16 -70 -2 -16 -11 -66 -20 -110 -19 -99 -30 -165 -41 -245 -3
-25 -8 -56 -10 -70 -2 -14 -7 -56 -10 -95 -4 -38 -9 -83 -11 -100 -12 -100
-18 -274 -18 -515 0 -310 8 -442 39 -685 13 -103 16 -128 30 -210 3 -16 10
-59 16 -95 22 -140 75 -362 138 -580 30 -105 113 -357 131 -395 5 -11 25 -63
46 -115 96 -248 303 -656 426 -843 21 -32 38 -60 38 -63 0 -2 33 -52 73 -111
237 -349 481 -642 761 -912 49 -47 99 -95 110 -107 18 -17 195 -168 261 -223
58 -48 238 -183 295 -222 36 -24 67 -47 70 -50 6 -6 254 -163 310 -196 134
-78 405 -218 542 -278 57 -25 112 -50 123 -55 59 -27 285 -112 385 -144 63
-21 124 -41 135 -46 61 -27 526 -139 665 -161 41 -6 84 -13 95 -15 11 -3 36
-7 55 -9 19 -3 49 -7 65 -10 91 -14 204 -26 385 -41 174 -14 803 -7 899 11 9
1 47 6 85 10 38 4 79 9 90 10 12 2 46 6 76 9 30 3 64 8 75 10 11 2 65 11 120
21 55 9 141 25 190 37 50 11 101 22 115 24 169 30 702 203 905 294 208 93 309
141 420 200 72 38 156 83 187 100 91 48 321 196 458 294 129 92 297 221 315
240 6 6 23 21 39 34 28 21 127 108 190 166 133 121 308 302 410 421 38 44 83
96 100 114 50 57 166 208 257 336 386 538 678 1158 848 1800 37 141 79 315 86
360 2 11 13 74 24 140 23 139 28 170 36 245 3 30 8 66 10 80 3 14 7 54 9 90 3
36 9 103 13 150 14 171 7 725 -12 895 -1 17 -6 59 -10 95 -4 36 -8 76 -10 90
-2 14 -11 74 -20 133 -58 396 -187 869 -338 1242 -154 381 -373 789 -584 1088
-157 222 -370 489 -498 623 -308 323 -565 549 -873 767 -115 81 -149 104 -287
189 -106 65 -108 66 -135 80 -14 7 -57 31 -95 54 -71 41 -288 152 -380 194
-277 126 -528 217 -865 314 -61 18 -341 83 -392 91 -18 3 -44 7 -58 10 -14 3
-38 7 -55 10 -16 3 -41 7 -55 10 -62 11 -160 25 -215 30 -33 3 -69 7 -80 10
-11 2 -63 7 -115 10 -52 3 -106 8 -120 11 -25 5 -617 14 -622 9z"/>
</g>
</svg>
